<?xml version="1.0" ?><svg xmlns="http://www.w3.org/2000/svg" id="Workflow-2" viewBox="0 0 64 64"><rect x="20" y="1" width="24" height="16" style="fill:#64c4ff; stroke-width:0px;"/><polygon points="20 30 32 22 44 30 32 38 20 30" style="fill:#ffe094; stroke-width:0px;"/><path d="M32,63c-5.51416016,0-10-4.48583984-10-10s4.48583984-10,10-10,10,4.48583984,10,10-4.48583984,10-10,10Z" style="fill:#68ddc1; stroke-width:0px;"/><path d="M44,0h-24c-.55224609,0-1,.44775391-1,1v16c0,.55224609.44775391,1,1,1h24c.55224609,0,1-.44775391,1-1V1c0-.55224609-.44775391-1-1-1ZM43,16h-22V2h22v14Z" style="fill:#393e4c; stroke-width:0px;"/><path d="M44.5546875,29.16796875l-12-8c-.3359375-.22363281-.7734375-.22363281-1.109375,0l-12,8c-.27832031.18554688-.4453125.49755859-.4453125.83203125s.16699219.64648438.4453125.83203125l12,8c.16796875.11181641.36132812.16796875.5546875.16796875s.38671875-.05615234.5546875-.16796875l12-8c.27832031-.18554688.4453125-.49755859.4453125-.83203125s-.16699219-.64648438-.4453125-.83203125ZM32,36.79833984l-10.19726562-6.79833984,10.19726562-6.79833984,10.19726562,6.79833984-10.19726562,6.79833984Z" style="fill:#393e4c; stroke-width:0px;"/><path d="M32,42c-6.06542969,0-11,4.93457031-11,11s4.93457031,11,11,11,11-4.93457031,11-11-4.93457031-11-11-11ZM32,62c-4.96240234,0-9-4.03759766-9-9s4.03759766-9,9-9,9,4.03759766,9,9-4.03759766,9-9,9Z" style="fill:#393e4c; stroke-width:0px;"/><path d="M27,8h10c.55224609,0,1-.44775391,1-1s-.44775391-1-1-1h-10c-.55224609,0-1,.44775391-1,1s.44775391,1,1,1Z" style="fill:#45a9f4; stroke-width:0px;"/><path d="M25,12h14c.55224609,0,1-.44775391,1-1s-.44775391-1-1-1h-14c-.55224609,0-1,.44775391-1,1s.44775391,1,1,1Z" style="fill:#45a9f4; stroke-width:0px;"/><path d="M27,30c0,.55224609.44775391,1,1,1h8c.55224609,0,1-.44775391,1-1s-.44775391-1-1-1h-8c-.55224609,0-1,.44775391-1,1Z" style="fill:#fcc275; stroke-width:0px;"/><path d="M35.29296875,50.29296875l-4.29296875,4.29296875-2.29296875-2.29296875c-.390625-.390625-1.0234375-.390625-1.4140625,0s-.390625,1.0234375,0,1.4140625l3,3c.1953125.1953125.45117188.29296875.70703125.29296875s.51171875-.09765625.70703125-.29296875l5-5c.390625-.390625.390625-1.0234375,0-1.4140625s-1.0234375-.390625-1.4140625,0Z" style="fill:#4cc1a5; stroke-width:0px;"/><path d="M62,8h-11.5859375l.29296875-.29296875c.390625-.390625.390625-1.0234375,0-1.4140625s-1.0234375-.390625-1.4140625,0l-2,2c-.390625.390625-.390625,1.0234375,0,1.4140625l2,2c.1953125.1953125.45117188.29296875.70703125.29296875s.51171875-.09765625.70703125-.29296875c.390625-.390625.390625-1.0234375,0-1.4140625l-.29296875-.29296875h11.5859375c.55224609,0,1-.44775391,1-1s-.44775391-1-1-1Z" style="fill:#ff6c9d; stroke-width:0px;"/><path d="M13.5,10h2.5c.55224609,0,1-.44775391,1-1s-.44775391-1-1-1h-2.5c-6.34130859,0-11.5,5.15869141-11.5,11.5s5.15869141,11.5,11.5,11.5h.0859375l-.29296875.29296875c-.390625.390625-.390625,1.0234375,0,1.4140625.1953125.1953125.45117188.29296875.70703125.29296875s.51171875-.09765625.70703125-.29296875l2-2c.390625-.390625.390625-1.0234375,0-1.4140625l-2-2c-.390625-.390625-1.0234375-.390625-1.4140625,0s-.390625,1.0234375,0,1.4140625l.29296875.29296875h-.0859375c-5.23828125,0-9.5-4.26171875-9.5-9.5s4.26171875-9.5,9.5-9.5Z" style="fill:#ff6c9d; stroke-width:0px;"/><path d="M49.5,29h-1.5c-.55224609,0-1,.44775391-1,1s.44775391,1,1,1h1.5c5.78955078,0,10.5,4.71044922,10.5,10.5,0,5.46453857-4.19781494,9.96289062-9.53717041,10.45123291l.24420166-.24420166c.390625-.390625.390625-1.0234375,0-1.4140625s-1.0234375-.390625-1.4140625,0l-2,2c-.390625.390625-.390625,1.0234375,0,1.4140625l2,2c.1953125.1953125.45117188.29296875.70703125.29296875s.51171875-.09765625.70703125-.29296875c.390625-.390625.390625-1.0234375,0-1.4140625l-.33703613-.33703613c6.48657227-.44989014,11.63000488-5.85699463,11.63000488-12.45593262,0-6.89257812-5.60742188-12.5-12.5-12.5Z" style="fill:#ff6c9d; stroke-width:0px;"/></svg>